<?xml version="1.0" encoding="UTF-8" standalone="no"?>
<!-- Created with Inkscape (http://www.inkscape.org/) -->
<svg xmlns:inkscape="http://www.inkscape.org/namespaces/inkscape" xmlns:rdf="http://www.w3.org/1999/02/22-rdf-syntax-ns#" xmlns="http://www.w3.org/2000/svg" xmlns:cc="http://creativecommons.org/ns#" xmlns:dc="http://purl.org/dc/elements/1.1/" xmlns:sodipodi="http://sodipodi.sourceforge.net/DTD/sodipodi-0.dtd" id="svg2994" sodipodi:docname="_svgclean2.svg" viewBox="0 0 459.77 479.49" version="1.1" inkscape:version="0.48.3.1 r9886">
  <sodipodi:namedview id="base" bordercolor="#666666" inkscape:pageshadow="2" inkscape:window-y="0" pagecolor="#ffffff" inkscape:window-height="645" inkscape:window-maximized="0" inkscape:zoom="0.6197314" inkscape:window-x="0" showgrid="false" borderopacity="1.0" inkscape:current-layer="layer1" inkscape:cx="51.74066" inkscape:cy="256.08148" inkscape:window-width="841" inkscape:pageopacity="0.0" inkscape:document-units="px"/>
  <g id="layer1" inkscape:label="Layer 1" inkscape:groupmode="layer" transform="translate(-147.7 -99.68)">
    <path id="path3120" style="fill-rule:evenodd;fill:#333333" inkscape:connector-curvature="0" d="m160.31 99.68-12.598 0.01-0.01 12.598v25.21h25.22v12.594h-25.22v55.625l9.9962 9.985-9.9962 9.99v92.421l25.279-25.272 12.592-12.598-0.0238-54.541h-0.0387l-9.9762-9.9762 10.005-10.009-0.02-43.019h12.589v50.401l31.514-31.499 31.499-31.519h-50.4v-12.584l43.018 0.015 10.014-10 9.9712 9.975v0.035l54.541 0.0288 37.871-37.871h-92.418l-9.995 9.995-9.985-9.995h-55.62v25.22h-12.599v-25.22h-25.21zm0 12.608h12.602v12.612c4.21 4.19 8.4088 8.3988 12.608 12.598h12.594l0.009 12.602h-0.009l-12.594-0.009v-12.594c-4.1988-4.2038-8.4075-8.3938-12.608-12.598-4.1988 0-8.4025-0.01-12.602-0.01v-12.602zm50.411 0h37.792l6.2988 6.2988-6.3325 6.3338-37.759-0.01v-12.622zm68.218 0h57.514l-12.66 12.661-44.795-0.01-6.3525-6.3525 6.2938-6.2988zm-47.212 50.401-10.502 10.512c1.1088 1.0788 2.2112 2.1925 3.305 3.305-1.1125-1.0988-2.2212-2.1962-3.305-3.305l-10.512 10.502 0.01-21.006 21.005-0.009zm-71.416 0.009h12.622l0.01 37.759-6.3338 6.3338-6.2988-6.2988v-37.794zm6.2988 61.92 6.3538 6.3525 0.009 44.799-12.661 12.661v-57.514l6.2988-6.2988z"/>
    <path id="path3122" style="fill-rule:evenodd;fill:#333333" inkscape:connector-curvature="0" d="m594.86 99.68 12.592 0.01 0.01 12.598v25.21h-25.22v12.594h25.22v55.625l-9.995 9.985 9.995 9.99v92.421l-37.871-37.87 0.03-54.541h0.0387l9.97-9.9762-10-10.009 0.02-43.019h-12.588v50.401l-31.519-31.499-31.494-31.519h50.4v-12.584l-43.022 0.015-10.01-10-9.975 9.975v0.035l-54.541 0.0288-12.592-12.598-25.279-25.274h92.421l9.995 9.995 9.9812-9.995h55.625v25.22h12.598v-25.22h25.21zm0 12.608h-12.608v12.612c-4.2038 4.19-8.4038 8.3988-12.602 12.598h-12.598l-0.01 12.602h0.01l12.598-0.009v-12.594c4.1988-4.2038 8.4038-8.3938 12.602-12.598 4.2038 0 8.4038-0.01 12.608-0.01v-12.602zm-50.41 0h-37.798l-6.3 6.2988 6.3388 6.3338 37.759-0.01v-12.622zm-68.222 0h-57.515l12.661 12.661 44.8-0.01 6.3525-6.3525-6.2988-6.2988zm47.216 50.401 10.502 10.512c-1.1075 1.0788-2.2112 2.1925-3.305 3.305 1.1138-1.0988 2.2212-2.1962 3.305-3.305l10.514 10.502-0.01-21.006-21.006-0.009zm71.416 0.009h-12.628l-0.005 37.759 6.3338 6.3338 6.2988-6.2988v-37.794zm-6.2988 61.92-6.3525 6.3525-0.01 44.799 12.661 12.661v-57.514l-6.2988-6.2988z"/>
    <path id="path3124" style="fill-rule:evenodd;fill:#333333" inkscape:connector-curvature="0" d="m594.86 579.17 12.592-0.01 0.01-12.598v-25.21h-25.22v-12.592h25.22v-55.625l-9.995-9.985 9.995-9.99v-92.422l-37.871 37.871 0.03 54.541h0.0387l9.97 9.975-10 10.01 0.02 43.018h-12.588v-50.4l-31.519 31.499-31.494 31.519h50.4v12.582l-43.022-0.0137-10.01 10-9.975-9.9762v-0.0337l-54.541-0.03-12.592 12.598-25.279 25.274h92.421l9.995-9.995 9.9812 9.995h55.625v-25.22h12.598v25.22h25.21zm0-12.608h-12.608v-12.612c-4.2038-4.1888-8.4038-8.3975-12.602-12.598h-12.598l-0.01-12.602h0.01l12.598 0.01v12.592c4.1988 4.205 8.4038 8.3938 12.602 12.598 4.2038 0 8.4038 0.01 12.608 0.01v12.602zm-50.41 0h-37.798l-6.3-6.2988 6.3388-6.3325 37.759 0.01v12.621zm-68.222 0h-57.515l12.661-12.661 44.8 0.01 6.3525 6.3525-6.2988 6.2988zm47.216-50.4 10.502-10.512c-1.1075-1.0788-2.2112-2.1925-3.305-3.3062 1.1138 1.0988 2.2212 2.1975 3.305 3.3062l10.514-10.504-0.01 21.006-21.006 0.01zm71.416-0.01h-12.628l-0.005-37.759 6.3338-6.3325 6.2988 6.2988v37.792zm-6.2988-61.919-6.3525-6.3525-0.01-44.8 12.661-12.661v57.515l-6.2988 6.2988z"/>
    <path id="path3126" style="fill-rule:evenodd;fill:#333333" inkscape:connector-curvature="0" d="m160.31 579.17-12.598-0.01-0.01-12.598v-25.21h25.22v-12.592h-25.22v-55.625l9.9962-9.985-9.9962-9.99v-92.422l25.279 25.274 12.592 12.598-0.0238 54.541h-0.0387l-9.9762 9.975 10.005 10.01-0.02 43.018h12.589v-50.4l31.514 31.499 31.499 31.519h-50.4v12.582l43.018-0.0137 10.014 10 9.9712-9.9762v-0.0337l54.541-0.03 37.871 37.871h-92.418l-9.995-9.995-9.985 9.995h-55.62v-25.22h-12.599v25.22h-25.21zm0-12.608h12.602v-12.612c4.21-4.1888 8.4088-8.3975 12.608-12.598h12.594l0.009-12.602h-0.009l-12.594 0.01v12.592c-4.1988 4.205-8.4075 8.3938-12.608 12.598-4.1988 0-8.4025 0.01-12.602 0.01v12.602zm50.411 0h37.792l6.2988-6.2988-6.3325-6.3325-37.759 0.01v12.621zm68.218 0h57.514l-12.66-12.661-44.795 0.01-6.3525 6.3525 6.2938 6.2988zm-47.212-50.4-10.502-10.512c1.1088-1.0788 2.2112-2.1925 3.305-3.3062-1.1125 1.0988-2.2212 2.1975-3.305 3.3062l-10.512-10.504 0.01 21.006 21.005 0.01zm-71.416-0.01h12.622l0.01-37.759-6.3338-6.3325-6.2988 6.2988v37.792zm6.2988-61.919 6.3538-6.3525 0.009-44.8-12.661-12.661v57.515l6.2988 6.2988z"/>
  </g>
  <metadata id="metadata10">
    <rdf:RDF>
      <cc:Work>
        <dc:format>image/svg+xml</dc:format>
        <dc:type rdf:resource="http://purl.org/dc/dcmitype/StillImage"/>
        <cc:license rdf:resource="http://creativecommons.org/licenses/publicdomain/"/>
        <dc:publisher>
          <cc:Agent rdf:about="http://openclipart.org/">
            <dc:title>Openclipart</dc:title>
          </cc:Agent>
        </dc:publisher>
      </cc:Work>
      <cc:License rdf:about="http://creativecommons.org/licenses/publicdomain/">
        <cc:permits rdf:resource="http://creativecommons.org/ns#Reproduction"/>
        <cc:permits rdf:resource="http://creativecommons.org/ns#Distribution"/>
        <cc:permits rdf:resource="http://creativecommons.org/ns#DerivativeWorks"/>
      </cc:License>
    </rdf:RDF>
  </metadata>
</svg>